<?xml version="1.0" encoding="UTF-8"?>
<svg xmlns="http://www.w3.org/2000/svg" xmlns:xlink="http://www.w3.org/1999/xlink" viewBox="0 0 97.8 112.26">
  <defs>
    <style>
      .cls-1 {
        fill: url(#_Áåçûìÿííûé_ãðàäèåíò_89-2);
      }

      .cls-2 {
        fill: url(#_Áåçûìÿííûé_ãðàäèåíò_87-2);
      }

      .cls-3 {
        fill: url(#_Áåçûìÿííûé_ãðàäèåíò_123-5);
      }

      .cls-3, .cls-4, .cls-5, .cls-6, .cls-7, .cls-8, .cls-9, .cls-10, .cls-11, .cls-12 {
        mix-blend-mode: multiply;
      }

      .cls-3, .cls-5, .cls-6, .cls-7, .cls-8, .cls-9, .cls-10, .cls-12 {
        opacity: .6;
      }

      .cls-4 {
        opacity: .72;
      }

      .cls-4, .cls-11, .cls-12 {
        fill: #d177b8;
      }

      .cls-13 {
        fill: url(#_Áåçûìÿííûé_ãðàäèåíò_21);
      }

      .cls-14 {
        isolation: isolate;
      }

      .cls-5 {
        fill: url(#_Áåçûìÿííûé_ãðàäèåíò_123);
      }

      .cls-6 {
        fill: url(#_Áåçûìÿííûé_ãðàäèåíò_123-3);
      }

      .cls-7 {
        fill: url(#_Áåçûìÿííûé_ãðàäèåíò_123-4);
      }

      .cls-8 {
        fill: url(#_Áåçûìÿííûé_ãðàäèåíò_123-6);
      }

      .cls-15 {
        fill: url(#_Áåçûìÿííûé_ãðàäèåíò_163);
      }

      .cls-16 {
        fill: url(#_Áåçûìÿííûé_ãðàäèåíò_89-3);
      }

      .cls-9 {
        fill: url(#_Áåçûìÿííûé_ãðàäèåíò_123-7);
      }

      .cls-17 {
        fill: url(#_Áåçûìÿííûé_ãðàäèåíò_89);
      }

      .cls-10 {
        fill: url(#_Áåçûìÿííûé_ãðàäèåíò_123-2);
      }

      .cls-18 {
        fill: url(#_Áåçûìÿííûé_ãðàäèåíò_67);
      }

      .cls-11 {
        opacity: .5;
      }

      .cls-19 {
        fill: url(#_Áåçûìÿííûé_ãðàäèåíò_87);
      }
    </style>
    <linearGradient id="_Áåçûìÿííûé_ãðàäèåíò_21" data-name="Áåçûìÿííûé ãðàäèåíò 21" x1="48.9" y1="112.26" x2="48.9" y2="77.82" gradientUnits="userSpaceOnUse">
      <stop offset="0" stop-color="#ffb39d"/>
      <stop offset=".23" stop-color="#ff9b8d"/>
      <stop offset=".48" stop-color="#ff8781"/>
      <stop offset=".74" stop-color="#ff7b79"/>
      <stop offset="1" stop-color="#f77"/>
    </linearGradient>
    <linearGradient id="_Áåçûìÿííûé_ãðàäèåíò_67" data-name="Áåçûìÿííûé ãðàäèåíò 67" x1="48.9" y1="112.26" x2="48.9" y2="98.75" gradientUnits="userSpaceOnUse">
      <stop offset="0" stop-color="#8684f4"/>
      <stop offset="1" stop-color="#839af2"/>
    </linearGradient>
    <linearGradient id="_Áåçûìÿííûé_ãðàäèåíò_123" data-name="Áåçûìÿííûé ãðàäèåíò 123" x1="59.22" y1="104.21" x2="59.22" y2="82.35" gradientUnits="userSpaceOnUse">
      <stop offset="0" stop-color="#ffeadb"/>
      <stop offset=".99" stop-color="#d177f4"/>
    </linearGradient>
    <linearGradient id="_Áåçûìÿííûé_ãðàäèåíò_123-2" data-name="Áåçûìÿííûé ãðàäèåíò 123" x1="67.44" y1="109.59" x2="67.44" y2="101.26" xlink:href="#_Áåçûìÿííûé_ãðàäèåíò_123"/>
    <linearGradient id="_Áåçûìÿííûé_ãðàäèåíò_123-3" data-name="Áåçûìÿííûé ãðàäèåíò 123" x1="27.17" y1="109.59" x2="27.17" y2="100.7" xlink:href="#_Áåçûìÿííûé_ãðàäèåíò_123"/>
    <linearGradient id="_Áåçûìÿííûé_ãðàäèåíò_87" data-name="Áåçûìÿííûé ãðàäèåíò 87" x1="81.47" y1="63.93" x2="81.47" y2="38.23" gradientUnits="userSpaceOnUse">
      <stop offset="0" stop-color="#f36b7c"/>
      <stop offset=".42" stop-color="#fa7278"/>
      <stop offset="1" stop-color="#f77"/>
    </linearGradient>
    <linearGradient id="_Áåçûìÿííûé_ãðàäèåíò_123-4" data-name="Áåçûìÿííûé ãðàäèåíò 123" x1="81.98" y1="56.11" x2="81.98" y2="42.78" xlink:href="#_Áåçûìÿííûé_ãðàäèåíò_123"/>
    <linearGradient id="_Áåçûìÿííûé_ãðàäèåíò_123-5" data-name="Áåçûìÿííûé ãðàäèåíò 123" x1="79.32" y1="55.77" x2="79.32" y2="45.44" xlink:href="#_Áåçûìÿííûé_ãðàäèåíò_123"/>
    <linearGradient id="_Áåçûìÿííûé_ãðàäèåíò_87-2" data-name="Áåçûìÿííûé ãðàäèåíò 87" x1="-770.56" y1="63.93" x2="-770.56" y2="38.23" gradientTransform="translate(-754.65) rotate(-180) scale(1 -1)" xlink:href="#_Áåçûìÿííûé_ãðàäèåíò_87"/>
    <linearGradient id="_Áåçûìÿííûé_ãðàäèåíò_123-6" data-name="Áåçûìÿííûé ãðàäèåíò 123" x1="-770.06" y1="56.11" x2="-770.06" y2="42.78" gradientTransform="translate(-754.65) rotate(-180) scale(1 -1)" xlink:href="#_Áåçûìÿííûé_ãðàäèåíò_123"/>
    <linearGradient id="_Áåçûìÿííûé_ãðàäèåíò_123-7" data-name="Áåçûìÿííûé ãðàäèåíò 123" x1="-772.71" y1="55.77" x2="-772.71" y2="45.44" gradientTransform="translate(-754.65) rotate(-180) scale(1 -1)" xlink:href="#_Áåçûìÿííûé_ãðàäèåíò_123"/>
    <linearGradient id="_Áåçûìÿííûé_ãðàäèåíò_163" data-name="Áåçûìÿííûé ãðàäèåíò 163" x1="48.65" y1="89.1" x2="48.65" y2="7.07" gradientUnits="userSpaceOnUse">
      <stop offset="0" stop-color="#d58f9d"/>
      <stop offset=".28" stop-color="#eb9897"/>
      <stop offset=".51" stop-color="#f99e94"/>
      <stop offset=".57" stop-color="#fa9c8f"/>
      <stop offset=".78" stop-color="#fd9783"/>
      <stop offset="1" stop-color="#ff967f"/>
    </linearGradient>
    <linearGradient id="_Áåçûìÿííûé_ãðàäèåíò_89" data-name="Áåçûìÿííûé ãðàäèåíò 89" x1="15.51" y1="26.36" x2="15.51" y2="26.09" gradientUnits="userSpaceOnUse">
      <stop offset="0" stop-color="#ffb396"/>
      <stop offset="1" stop-color="#ffe0bb"/>
    </linearGradient>
    <linearGradient id="_Áåçûìÿííûé_ãðàäèåíò_89-2" data-name="Áåçûìÿííûé ãðàäèåíò 89" x1="48.15" y1="46.36" x2="48.15" y2="0" xlink:href="#_Áåçûìÿííûé_ãðàäèåíò_89"/>
    <linearGradient id="_Áåçûìÿííûé_ãðàäèåíò_89-3" data-name="Áåçûìÿííûé ãðàäèåíò 89" x1="44.05" y1="14.14" x2="44.05" y2="4.44" xlink:href="#_Áåçûìÿííûé_ãðàäèåíò_89"/>
  </defs>
  <g class="cls-14">
    <g id="Layer_2" data-name="Layer 2">
      <g id="layer1">
        <g>
          <g>
            <g>
              <path class="cls-13" d="m27.32,77.82s-.72,19.67-1.22,21.61S0,112.26,0,112.26h97.8s-27.82-9.83-28.57-12.08c-.75-2.25-.77-21-.77-21l-41.13-1.36Z"/>
              <path class="cls-18" d="m26.2,98.86s-2.04-.24-2.26,0c-.22.24,0,1.85,0,1.85L0,112.26h97.8l-25.82-11s-.89-2.44-2.75-1.08l.64.92s-8.66,9.27-23.1,9.27-20.56-11.51-20.56-11.51Z"/>
              <path class="cls-12" d="m27,85.66s4.82,1.35,5.99,3.44c1.17,2.08,8.66,17.74,14.58,17.99,5.91.25,9.75-8.08,12.74-10s8.43-2.06,8.43-2.06l-.29-15.86-41.13-1.36-.32,7.84Z"/>
              <path class="cls-5" d="m55.29,88.6l-1.52,15.61s3.67-4.12,5.55-7.11c1.87-3,5.37-14.74,5.37-14.74l-9.4,6.25Z"/>
              <path class="cls-10" d="m71.97,101.26s-6.28,5.66-12.75,8.33c0,0,12.84-4.08,16.43-6.76l-3.68-1.57Z"/>
              <path class="cls-6" d="m23.94,100.7s4.41,4.44,10.78,8.89c0,0-8.13-2.17-15.09-6.81l4.31-2.08Z"/>
              <path class="cls-12" d="m29.97,103.6s6.55,5.99,17.9,5.99,18.23-5.38,18.23-5.38c0,0-7.82,6.16-19.34,6.16s-16.79-6.76-16.79-6.76Z"/>
            </g>
            <g>
              <path class="cls-19" d="m76.06,44.45s4.09-6.23,6.87-6.22c1.69,0,5.77,3.55,5.72,6.94-.06,4.53-4.07,9.68-5.07,12.32-1,2.64-3.59,6.08-5.31,6.42-1.72.33-3.96-2.93-3.96-2.93,0,0,.84-12.43,1.76-16.54Z"/>
              <path class="cls-7" d="m76.36,51.08s6.72-8.3,9.16-8.3,2.44,4.72,1.46,7.41c-.68,1.87-2.01,4.56-2.01,4.56,0,0,1.06-2.89,1.18-5.06.19-3.33-.55-5.75-1.39-5.75-1.55.01-2.76,2.12-2.96,2.87-.19.75,1.22,4.04.85,6.33-.37,2.29-1.75,3.17-2.21,2.92-.46-.25.25-2.83-.17-3.75-.42-.92-1.62-2.25-2.33-1.96-.71.29-1.58.72-1.58.72Z"/>
              <path class="cls-3" d="m76.36,51.08s1.66-.99,2.16-.67,1.78,1.47,1.84,2.19-.41,2.78,0,3.14c.41.36,1.87-1.96,1.93-4.01.07-2.05-1.08-4.41-1.08-4.69s.27-1.59.27-1.59c0,0-3.9,3.69-5.11,5.64Z"/>
            </g>
            <g>
              <path class="cls-2" d="m21.32,44.45s-4.09-6.23-6.87-6.22c-1.69,0-5.77,3.55-5.72,6.94.06,4.53,4.07,9.68,5.07,12.32s3.59,6.08,5.31,6.42c1.72.33,3.96-2.93,3.96-2.93,0,0-.84-12.43-1.76-16.54Z"/>
              <path class="cls-8" d="m21.02,51.08s-6.72-8.3-9.16-8.3-2.44,4.72-1.46,7.41c.68,1.87,2.01,4.56,2.01,4.56,0,0-1.06-2.89-1.18-5.06-.19-3.33.55-5.75,1.39-5.75,1.55.01,2.76,2.12,2.96,2.87.19.75-1.22,4.04-.85,6.33.37,2.29,1.75,3.17,2.21,2.92.46-.25-.25-2.83.17-3.75.42-.92,1.62-2.25,2.33-1.96.71.29,1.58.72,1.58.72Z"/>
              <path class="cls-9" d="m21.02,51.08s-1.66-.99-2.16-.67-1.78,1.47-1.84,2.19c-.05.72.41,2.78,0,3.14-.41.36-1.87-1.96-1.93-4.01-.07-2.05,1.08-4.41,1.08-4.69s-.27-1.59-.27-1.59c0,0,3.9,3.69,5.11,5.64Z"/>
            </g>
            <g>
              <path class="cls-15" d="m77.19,47.11c-.45,4.88-1.39,9.44-1.61,14.55-.22,5.11-.65,9.26-1.44,11.16-.36.85-.99,1.74-1.79,2.64h0c-2.27,2.56-5.88,5.24-8.32,7.76-.92.95-1.88,1.76-2.79,2.43,0,0,0,0-.01,0-1.82,1.35-3.43,2.16-4.2,2.47-2.33.96-8.37.96-8.37.96,0,0-6.04,0-8.37-.96-1.15-.47-4.22-2.05-7-4.91-2.89-2.98-7.39-6.18-9.4-9.13-.3-.43-.54-.86-.72-1.28-.8-1.9-1.22-6.05-1.44-11.16-.22-5.11-1.17-9.66-1.61-14.55-.44-4.89-1-21.82.44-25.71,1.45-3.89,18.55-14.33,28.1-14.33,6.7,0,17.13,5.14,23.25,9.56,2.6,1.87,4.42,3.61,4.85,4.77,1.45,3.89.89,20.83.45,25.71Z"/>
              <path class="cls-12" d="m72.34,75.47c-2.27,2.55-5.88,5.24-8.32,7.76-.92.95-1.88,1.76-2.79,2.43,0,0,0,0-.01,0-1.82,1.35-3.43,2.16-4.2,2.47-2.33.96-8.37.96-8.37.96,0,0-6.04,0-8.37-.96-1.15-.47-4.22-2.05-7-4.91-2.89-2.98-7.39-6.18-9.4-9.13,0,0,3.27,3.04,6.73,5.92,3.46,2.88,9.21,8.36,18.04,8.36s15.45-6.55,16.83-7.55c1.36-.98,6.69-5.21,6.87-5.35Z"/>
            </g>
          </g>
          <g>
            <path class="cls-17" d="m15.46,26.36c.02-.07.05-.16.09-.28-.04.09-.07.18-.09.28Z"/>
            <path class="cls-1" d="m78.49,22.53c.09.24.51,1.61.36,6.89-.17,5.91-1.37,13.09-1.37,13.09,0,0-1.3-3.06-2-9.69-.7-6.63-1.18-9.65-1.18-9.65,0,0-2.53-3.54-4.93-5.65l1.65,6.31h0s-.07-.08-.15-.17c-1.12-1.33-8.17-9.47-11.56-11.17,0,0-.89,3.32-2.23,6.18l-2.74-5.99h-.22c-1.65.09-12.24.57-17.88.57-.95,0-1.92.26-2.89.69-.13.05-.26.12-.4.19-5.09,2.54-9.85,9.76-9.85,9.76,0,0,.24,7.9,0,10.51-.24,2.62-3.05,11.95-3.05,11.95,0,0-.62-10.44-.96-14.82-.34-4.37-.68-8.41-.68-8.41,0,0-1.92.98-2.72,2.62,0,0,0,.01,0,.02-.03.05-.05.1-.07.15.66-2.01,3.24-8.35,10.04-11.8,0,0-1.65.04-3.71.79-.16.07-.32.13-.47.2-.44.17-.89.38-1.34.65-.06.03-.13.07-.19.1-.16.09-.27.15-.31.17h0c.16-.23,2.33-3.15,5.57-4.06,1.67-.47,3.25-.98,4.92-1.63,1.45-.57,2.95-1.23,4.66-2.08h.02s0-.01.03-.03c.31-.15.63-.32.95-.48,2.05-1.05,4.61-2.91,6.84-4.54.01,0,.02-.01.03-.02C44.99,1.5,46.98.04,47.63,0c1.28-.07,6.05,1.97,8.79,2.55,2.74.57,5.29.06,5.8.32.5.26,4.26,6.44,7.96,9.3,3.69,2.87,8.15,5.93,9.13,7.9.91,1.79,1.3,5.22,1.37,5.83,0,.01,0,.03,0,.05s0,.03,0,.05l-2.21-3.47Z"/>
            <path class="cls-11" d="m23.08,23.89s.24,7.9,0,10.51c-.24,2.62-3.05,11.95-3.05,11.95,0,0-.62-10.44-.96-14.82-.34-4.37-.68-8.41-.68-8.41,0,0-1.92.98-2.72,2.62,1.59-3.89,5.99-6.79,5.99-6.79,0,0-1.78,2.08-2.06,4.2-.27,2.13,0,5.01,0,5.01,0,0,.36-2.17,2.99-5.78s7.56-8.17,7.56-8.17c0,0-1.32-.37-4.24-.29-1.36.04-2.81.5-3.98.98-.65.26-1.21.53-1.62.74-.13.07-.25.12-.38.2-.16.09-.27.15-.31.17.3-.25,4.39-3.56,7.9-3.62,3.65-.05,5.4,1.71,5.4,1.71-5.09,2.54-9.85,9.76-9.85,9.76Z"/>
            <path class="cls-4" d="m54.32,12.68h-.22c-1.65.09-12.24.57-17.88.57-.95,0-1.92.26-2.89.69-.44-1.69-2.25-2.99-3.22-3.59,1.45-.57,5.21-1.31,5.21-1.31,0,0,11.33-7.87,12.08-7.59,2.04.77,6.91,11.22,6.91,11.22Z"/>
            <path class="cls-11" d="m71.01,23.83s-.07-.07-.15-.17c-1.12-1.33-8.17-9.47-11.56-11.17,0,0,.83-4.48,0-8.77,0,0,9.61,13.86,11.72,20.11Z"/>
            <path class="cls-11" d="m78.49,22.53c.09.24.51,1.61.36,6.89-.17,5.91-1.37,13.09-1.37,13.09,0,0-1.3-3.06-2-9.69-.7-6.63-1.18-9.65-1.18-9.65,0,0-2.53-3.54-4.93-5.65,0,0-1.37-5.82-2.54-8.06.79,1.39,5.11,8.89,6.84,11.55,1.91,2.93,4.5,4.29,4.5,4.29,0,0-.04-3.11-.98-5.78,0,0,2.62,1.35,3.5,6.43,0,.01,0,.03,0,.05l-2.21-3.47Z"/>
            <path class="cls-11" d="m59.29,12.49s3.52,2.19,7.54,6.68c0,0-1.61-9.76-7.54-15.45,0,0,1.48,4.35,0,8.77Z"/>
            <path class="cls-16" d="m35.08,13.37s1.75-8.19,2.8-8.85c1.05-.66,10.77,2.55,15.14,9.61,0,0-15.57-4.97-16.23-4.68-1.07.47-1.72,3.91-1.72,3.91Z"/>
          </g>
        </g>
      </g>
    </g>
  </g>
</svg>