<?xml version="1.0" encoding="UTF-8"?>
<svg xmlns="http://www.w3.org/2000/svg" xmlns:xlink="http://www.w3.org/1999/xlink" viewBox="0 0 97.8 117.12">
  <defs>
    <style>
      .cls-1 {
        fill: url(#_Áåçûìÿííûé_ãðàäèåíò_87-2);
      }

      .cls-2 {
        fill: url(#_Áåçûìÿííûé_ãðàäèåíò_123-5);
      }

      .cls-2, .cls-3, .cls-4, .cls-5, .cls-6, .cls-7, .cls-8, .cls-9, .cls-10 {
        mix-blend-mode: multiply;
      }

      .cls-2, .cls-4, .cls-5, .cls-6, .cls-7, .cls-8, .cls-9, .cls-10 {
        opacity: .6;
      }

      .cls-3 {
        opacity: .9;
      }

      .cls-3, .cls-10 {
        fill: #d177b8;
      }

      .cls-11 {
        fill: url(#_Áåçûìÿííûé_ãðàäèåíò_21);
      }

      .cls-12 {
        isolation: isolate;
      }

      .cls-13 {
        fill: url(#_Áåçûìÿííûé_ãðàäèåíò_180);
      }

      .cls-4 {
        fill: url(#_Áåçûìÿííûé_ãðàäèåíò_123);
      }

      .cls-5 {
        fill: url(#_Áåçûìÿííûé_ãðàäèåíò_123-3);
      }

      .cls-6 {
        fill: url(#_Áåçûìÿííûé_ãðàäèåíò_123-4);
      }

      .cls-7 {
        fill: url(#_Áåçûìÿííûé_ãðàäèåíò_123-6);
      }

      .cls-14 {
        fill: url(#_Áåçûìÿííûé_ãðàäèåíò_163);
      }

      .cls-8 {
        fill: url(#_Áåçûìÿííûé_ãðàäèåíò_123-7);
      }

      .cls-15 {
        fill: #ffd9bb;
        mix-blend-mode: soft-light;
      }

      .cls-9 {
        fill: url(#_Áåçûìÿííûé_ãðàäèåíò_123-2);
      }

      .cls-16 {
        fill: url(#_Áåçûìÿííûé_ãðàäèåíò_67);
      }

      .cls-17 {
        fill: url(#_Áåçûìÿííûé_ãðàäèåíò_180-2);
      }

      .cls-18 {
        fill: url(#_Áåçûìÿííûé_ãðàäèåíò_87);
      }
    </style>
    <linearGradient id="_Áåçûìÿííûé_ãðàäèåíò_21" data-name="Áåçûìÿííûé ãðàäèåíò 21" x1="48.9" y1="117.12" x2="48.9" y2="82.68" gradientUnits="userSpaceOnUse">
      <stop offset="0" stop-color="#ffb39d"/>
      <stop offset=".23" stop-color="#ff9b8d"/>
      <stop offset=".48" stop-color="#ff8781"/>
      <stop offset=".74" stop-color="#ff7b79"/>
      <stop offset="1" stop-color="#f77"/>
    </linearGradient>
    <linearGradient id="_Áåçûìÿííûé_ãðàäèåíò_67" data-name="Áåçûìÿííûé ãðàäèåíò 67" x1="48.9" y1="117.12" x2="48.9" y2="103.62" gradientUnits="userSpaceOnUse">
      <stop offset="0" stop-color="#8684f4"/>
      <stop offset="1" stop-color="#839af2"/>
    </linearGradient>
    <linearGradient id="_Áåçûìÿííûé_ãðàäèåíò_123" data-name="Áåçûìÿííûé ãðàäèåíò 123" x1="59.22" y1="109.07" x2="59.22" y2="87.22" gradientUnits="userSpaceOnUse">
      <stop offset="0" stop-color="#ffeadb"/>
      <stop offset=".99" stop-color="#d177f4"/>
    </linearGradient>
    <linearGradient id="_Áåçûìÿííûé_ãðàäèåíò_123-2" data-name="Áåçûìÿííûé ãðàäèåíò 123" x1="67.44" y1="114.45" x2="67.44" y2="106.12" xlink:href="#_Áåçûìÿííûé_ãðàäèåíò_123"/>
    <linearGradient id="_Áåçûìÿííûé_ãðàäèåíò_123-3" data-name="Áåçûìÿííûé ãðàäèåíò 123" x1="27.17" y1="114.45" x2="27.17" y2="105.57" xlink:href="#_Áåçûìÿííûé_ãðàäèåíò_123"/>
    <linearGradient id="_Áåçûìÿííûé_ãðàäèåíò_87" data-name="Áåçûìÿííûé ãðàäèåíò 87" x1="81.47" y1="68.8" x2="81.47" y2="43.09" gradientUnits="userSpaceOnUse">
      <stop offset="0" stop-color="#f36b7c"/>
      <stop offset=".42" stop-color="#fa7278"/>
      <stop offset="1" stop-color="#f77"/>
    </linearGradient>
    <linearGradient id="_Áåçûìÿííûé_ãðàäèåíò_123-4" data-name="Áåçûìÿííûé ãðàäèåíò 123" x1="81.98" y1="60.98" x2="81.98" y2="47.65" xlink:href="#_Áåçûìÿííûé_ãðàäèåíò_123"/>
    <linearGradient id="_Áåçûìÿííûé_ãðàäèåíò_123-5" data-name="Áåçûìÿííûé ãðàäèåíò 123" x1="79.32" y1="60.64" x2="79.32" y2="50.3" xlink:href="#_Áåçûìÿííûé_ãðàäèåíò_123"/>
    <linearGradient id="_Áåçûìÿííûé_ãðàäèåíò_87-2" data-name="Áåçûìÿííûé ãðàäèåíò 87" x1="-983.41" y1="68.8" x2="-983.41" y2="43.09" gradientTransform="translate(-967.5) rotate(-180) scale(1 -1)" xlink:href="#_Áåçûìÿííûé_ãðàäèåíò_87"/>
    <linearGradient id="_Áåçûìÿííûé_ãðàäèåíò_123-6" data-name="Áåçûìÿííûé ãðàäèåíò 123" x1="-982.91" y1="60.98" x2="-982.91" y2="47.65" gradientTransform="translate(-967.5) rotate(-180) scale(1 -1)" xlink:href="#_Áåçûìÿííûé_ãðàäèåíò_123"/>
    <linearGradient id="_Áåçûìÿííûé_ãðàäèåíò_123-7" data-name="Áåçûìÿííûé ãðàäèåíò 123" x1="-985.56" y1="60.64" x2="-985.56" y2="50.3" gradientTransform="translate(-967.5) rotate(-180) scale(1 -1)" xlink:href="#_Áåçûìÿííûé_ãðàäèåíò_123"/>
    <linearGradient id="_Áåçûìÿííûé_ãðàäèåíò_163" data-name="Áåçûìÿííûé ãðàäèåíò 163" x1="48.17" y1="93.96" x2="48.17" y2="11.94" gradientUnits="userSpaceOnUse">
      <stop offset="0" stop-color="#d58f9d"/>
      <stop offset=".28" stop-color="#eb9897"/>
      <stop offset=".51" stop-color="#f99e94"/>
      <stop offset=".57" stop-color="#fa9c8f"/>
      <stop offset=".78" stop-color="#fd9783"/>
      <stop offset="1" stop-color="#ff967f"/>
    </linearGradient>
    <linearGradient id="_Áåçûìÿííûé_ãðàäèåíò_180" data-name="Áåçûìÿííûé ãðàäèåíò 180" x1="48.44" y1="51.22" x2="48.44" y2="0" gradientUnits="userSpaceOnUse">
      <stop offset="0" stop-color="#4d0e2e"/>
      <stop offset="1" stop-color="#70253b"/>
    </linearGradient>
    <linearGradient id="_Áåçûìÿííûé_ãðàäèåíò_180-2" data-name="Áåçûìÿííûé ãðàäèåíò 180" x1="27.8" y1="36.96" x2="27.8" y2="14.9" xlink:href="#_Áåçûìÿííûé_ãðàäèåíò_180"/>
  </defs>
  <g class="cls-12">
    <g id="Layer_2" data-name="Layer 2">
      <g id="layer1">
        <g>
          <g>
            <g>
              <path class="cls-11" d="m27.32,82.68s-.72,19.67-1.22,21.61c-.5,1.94-26.1,12.83-26.1,12.83h97.8s-27.82-9.83-28.57-12.08c-.75-2.25-.77-21-.77-21l-41.13-1.36Z"/>
              <path class="cls-16" d="m26.2,103.72s-2.04-.24-2.26,0c-.22.24,0,1.85,0,1.85L0,117.12h97.8l-25.82-11s-.89-2.44-2.75-1.08l.64.92s-8.66,9.27-23.1,9.27-20.56-11.51-20.56-11.51Z"/>
              <path class="cls-10" d="m27,90.52s4.82,1.35,5.99,3.44c1.17,2.08,8.66,17.74,14.58,17.99,5.91.25,9.75-8.08,12.75-10,3-1.92,8.43-2.06,8.43-2.06l-.29-15.86-41.13-1.36-.32,7.84Z"/>
              <path class="cls-4" d="m55.29,93.46l-1.52,15.61s3.67-4.12,5.55-7.11c1.87-3,5.37-14.74,5.37-14.74l-9.4,6.25Z"/>
              <path class="cls-9" d="m71.97,106.12s-6.28,5.66-12.75,8.33c0,0,12.84-4.08,16.43-6.76l-3.68-1.57Z"/>
              <path class="cls-5" d="m23.94,105.57s4.41,4.44,10.78,8.89c0,0-8.13-2.17-15.09-6.81l4.31-2.08Z"/>
              <path class="cls-10" d="m29.97,108.47s6.55,5.99,17.9,5.99,18.23-5.38,18.23-5.38c0,0-7.82,6.16-19.34,6.16s-16.79-6.76-16.79-6.76Z"/>
            </g>
            <g>
              <path class="cls-18" d="m76.06,49.31s4.09-6.23,6.87-6.22c1.69,0,5.77,3.55,5.72,6.94-.06,4.53-4.07,9.68-5.07,12.32-1,2.64-3.59,6.08-5.31,6.42-1.72.33-3.96-2.93-3.96-2.93,0,0,.84-12.43,1.76-16.54Z"/>
              <path class="cls-6" d="m76.36,55.95s6.72-8.3,9.16-8.3,2.44,4.72,1.46,7.41c-.68,1.87-2.01,4.56-2.01,4.56,0,0,1.06-2.89,1.18-5.06.19-3.33-.55-5.75-1.39-5.75-1.55.01-2.76,2.12-2.96,2.87-.19.75,1.22,4.04.85,6.33-.37,2.29-1.75,3.17-2.21,2.92-.46-.25.25-2.83-.17-3.75-.42-.92-1.62-2.25-2.33-1.96-.71.29-1.58.72-1.58.72Z"/>
              <path class="cls-2" d="m76.36,55.95s1.66-.99,2.16-.67,1.78,1.47,1.84,2.19-.41,2.78,0,3.14c.41.36,1.87-1.96,1.93-4.01.07-2.05-1.08-4.41-1.08-4.69s.27-1.59.27-1.59c0,0-3.9,3.69-5.11,5.64Z"/>
            </g>
            <g>
              <path class="cls-1" d="m21.32,49.31s-4.09-6.23-6.87-6.22c-1.69,0-5.77,3.55-5.72,6.94.06,4.53,4.07,9.68,5.07,12.32s3.59,6.08,5.31,6.42c1.72.33,3.96-2.93,3.96-2.93,0,0-.84-12.43-1.76-16.54Z"/>
              <path class="cls-7" d="m21.02,55.95s-6.72-8.3-9.16-8.3-2.44,4.72-1.46,7.41c.68,1.87,2.01,4.56,2.01,4.56,0,0-1.06-2.89-1.18-5.06-.19-3.33.55-5.75,1.39-5.75,1.55.01,2.76,2.12,2.96,2.87.19.75-1.22,4.04-.85,6.33.37,2.29,1.75,3.17,2.21,2.92.46-.25-.25-2.83.17-3.75.42-.92,1.62-2.25,2.33-1.96.71.29,1.58.72,1.58.72Z"/>
              <path class="cls-8" d="m21.02,55.95s-1.66-.99-2.16-.67c-.5.32-1.78,1.47-1.84,2.19s.41,2.78,0,3.14c-.41.36-1.87-1.96-1.93-4.01-.07-2.05,1.08-4.41,1.08-4.69s-.27-1.59-.27-1.59c0,0,3.9,3.69,5.11,5.64Z"/>
            </g>
            <g>
              <path class="cls-14" d="m77.19,51.98c-.45,4.88-1.39,9.44-1.61,14.55-.22,5.11-.65,9.26-1.44,11.16-.36.85-.99,1.74-1.79,2.64h0c-2.27,2.56-5.88,5.24-8.32,7.76-.92.95-1.88,1.76-2.79,2.43,0,0,0,0-.01,0-1.82,1.35-3.43,2.16-4.2,2.47-2.33.96-8.37.96-8.37.96,0,0-6.04,0-8.37-.96-1.15-.47-4.22-2.05-7-4.91-2.89-2.98-7.39-6.18-9.4-9.13-.3-.43-.54-.86-.72-1.28-.8-1.9-1.22-6.05-1.44-11.16-.22-5.11-1.17-9.66-1.61-14.55-.44-4.89-2.35-22.82-.9-26.71,1.45-3.89,19.9-13.33,29.45-13.33,6.7,0,17.13,5.14,23.25,9.56,2.6,1.87,4.42,3.61,4.85,4.77,1.45,3.89.89,20.83.45,25.71Z"/>
              <path class="cls-10" d="m72.34,80.33c-2.27,2.55-5.88,5.24-8.32,7.76-.92.95-1.88,1.76-2.79,2.43,0,0,0,0-.01,0-1.82,1.35-3.43,2.16-4.2,2.47-2.33.96-8.37.96-8.37.96,0,0-6.04,0-8.37-.96-1.15-.47-4.22-2.05-7-4.91-2.89-2.98-7.39-6.18-9.4-9.13,0,0,3.27,3.04,6.73,5.92,3.46,2.88,9.21,8.36,18.04,8.36s15.45-6.55,16.83-7.55c1.36-.98,6.69-5.21,6.87-5.35Z"/>
            </g>
          </g>
          <g>
            <path class="cls-13" d="m80.52,32.29c-.95,6.44-3.01,13.89-3.01,13.89,0,0-3.71-8.93-3.87-12.18-.17-3.26-.84-10.75-2.11-12.21-.77-.88-7.99-5.31-10.34-4.89-1.6.29-15,8.92-15,8.92.86-3.03,2.33-5.51,2.89-6.39,0-.02.02-.04.03-.06.07-.12.13-.2.16-.25-.03.02-.05.05-.08.08-4.55,4.97-9.26,13.66-9.26,13.66-.83-1.34-1.27-3.07-1.32-3.28.65,4.8,2.34,7.38,2.34,7.38-6.56-5.75-7.14-17.24-7.14-17.24-2.48,4.24-4.95,10.79-4.95,10.79-.69-3.33,2.1-9.44,2.25-10.14v-.84s.01,2.49,0,2.5c-.27.17-3.77,2.35-4.57,3.79-.83,1.5.06,6.9-3.47,11.71-3.19,4.34-3.05,13.68-3.05,13.68,0,0-4.13-18.27-4.13-27.19,0-3.26,1.52-4.74,2.15-5.4,6.42-6.7,14.55-7.46,21.69-11.69.55-.33,1.08-.63,1.6-.9.42-.22.83-.42,1.22-.61,0,0,.01,0,.02,0,.01,0,.02,0,.02,0,.87-.42,1.68-.76,2.43-1.03.65-.24,1.26-.44,1.81-.59,2.8-.8,4.37-.63,4.37-.63-3.88-1.14-11.98,2.21-11.98,2.21,0,0,8.35-5.97,11.15-5.31,2.8.64,5.57,6.83,10.58,9.58,2.29,1.26,7.52.83,10.64,2.27,3.12,1.43,6.07,5.63,6.07,5.63-3.23-3.24-9.75-4.7-10.15-4.78h0,0s.13.08.13.08c.44.24,1.72.97,3.33,2.02l.03.02.03.02c3.86,2.54,9.54,6.93,9.88,10.94.14,1.69-.06,4-.42,6.47Z"/>
            <path class="cls-3" d="m38.62,29.59c.65,4.8,2.34,7.38,2.34,7.38-6.56-5.75-7.14-17.24-7.14-17.24.98-8.7,5.34-12.37,7.53-13.68.64-.38,1.09-.56,1.22-.61,0,0,.01,0,.02,0-.37.21-5.56,3.27-6.18,8.57-.64,5.5,1.49,15.18,1.49,15.18-1.61-13.99,7.14-24.78,7.14-24.78l1.81-.59s-5.76,7.51-6.74,14.22c-.98,6.7,0,12.59,0,12.59,3.27-5.66,12.39-16.32,13.52-17.63-.39.49-1.8,2.28-3.41,4.56-.37.52-.71,1.09-1.03,1.68-4.55,4.97-9.26,13.66-9.26,13.66-.83-1.34-1.27-3.07-1.32-3.28Z"/>
            <path class="cls-3" d="m64.68,14.9c-1.61-.22-18.5,10.92-18.5,10.92.86-3.03,2.33-5.51,2.89-6.39-1.2,2.33-1.94,4.8-1.99,4.97.29-.28,9.64-9.24,12.52-9.8,2.93-.58,5.07.3,5.07.3Z"/>
            <path class="cls-3" d="m80.52,32.29c-.95,6.44-3.01,13.89-3.01,13.89,0,0-3.71-8.93-3.87-12.18-.17-3.26-.84-10.75-2.11-12.21,0,0,1.78-.21,4.5,2.29,4.83,4.46,3.87,6.49,3.87,6.49,0,0-3.31-5.25-5.03-6.68,0,0,3.4,5.19,4.47,7.18.32.59.74.98,1.19,1.22Z"/>
            <path class="cls-3" d="m67.51,12.74s-3.23-1.23-5.75-1.7l9.29,3.85-3.54-2.15Z"/>
            <path class="cls-3" d="m31.12,22.04c-.27.17-3.77,2.35-4.57,3.79-.83,1.5.06,6.9-3.47,11.71-3.19,4.34-3.05,13.68-3.05,13.68,0,0-5.5-20.22-3.12-28.82,2.64-2.47,9.2-3.4,9.53-3.53-3.22,2.88-4.67,8.1-4.67,8.1,3.15-3.27,8.99-4.85,9.35-4.94Z"/>
            <path class="cls-17" d="m31.12,14.9s-4.74,8.09-6.35,13.35c-1.61,5.26,3.99,8.71,3.99,8.71,0,0-.62-10.7,2.36-14.93v-7.13Z"/>
            <path class="cls-15" d="m71.93,19.56s2.36,1.65,4.43,2.18,2.34-.44,2.34-.44c0,0,1.79,2.04,2.15,3.97,0,0-1.92-2.28-3.17-2.4-1.25-.12-1.63.6-1.63.6,0,0-3.23-3.16-4.11-3.9Z"/>
            <path class="cls-15" d="m44.71,6.94s-3.63,5.58-4.22,9.24c0,0,5.76-.39,7.17,0,0,0,2.68-6,4.01-6.94,0,0-1.94-3.06-6.96-2.3Z"/>
            <path class="cls-15" d="m42.84,7.68s-3.06,4.81-3.76,7.22c0,0-1.31-.79-1.72-1.94-.41-1.16,2.3-4.79,3.13-5.28.83-.49,2.35,0,2.35,0Z"/>
            <path class="cls-15" d="m37.32,9.53l-3.49,3.43s.7-1.85,1.37-2.57c.67-.72,2.12-.86,2.12-.86Z"/>
            <path class="cls-15" d="m51.66,17.74s2.87-4.36,4.59-4.78c1.72-.42,3.76.44,3.76.44,0,0-5.4,2.77-8.35,4.33Z"/>
          </g>
        </g>
      </g>
    </g>
  </g>
</svg>