<?xml version="1.0" encoding="UTF-8"?>
<svg xmlns="http://www.w3.org/2000/svg" xmlns:xlink="http://www.w3.org/1999/xlink" viewBox="0 0 63.83 28.68">
  <defs>
    <style>
      .cls-1 {
        fill: #fff;
      }

      .cls-2 {
        fill: #4e1b3d;
      }

      .cls-3 {
        isolation: isolate;
      }

      .cls-4 {
        fill: #dd6b7c;
      }

      .cls-5 {
        fill: #ff7d85;
      }

      .cls-6 {
        fill: #ffccb8;
        mix-blend-mode: soft-light;
      }

      .cls-7 {
        fill: url(#_Áåçûìÿííûé_ãðàäèåíò_141);
      }

      .cls-7, .cls-8 {
        mix-blend-mode: multiply;
      }

      .cls-8 {
        fill: #d177b8;
        opacity: .6;
      }
    </style>
    <linearGradient id="_Áåçûìÿííûé_ãðàäèåíò_141" data-name="Áåçûìÿííûé ãðàäèåíò 141" x1="31.17" y1="28.68" x2="31.17" y2="10.23" gradientUnits="userSpaceOnUse">
      <stop offset="0" stop-color="#ffc0db"/>
      <stop offset=".99" stop-color="#d177f4"/>
    </linearGradient>
  </defs>
  <g class="cls-3">
    <g id="Layer_2" data-name="Layer 2">
      <g id="layer1">
        <g>
          <path class="cls-7" d="m6.99,10.23s10.44,18.45,24.63,18.45c12.83,0,23.72-18.07,23.72-18.07,0,0-10.03,10.16-19.48,11.13-9.45.96-28.86-11.5-28.86-11.5Z"/>
          <path class="cls-5" d="m2.21,2.95s10.11,17.14,17.16,19.48c7.04,2.35,19.95.97,24.11,0,4.15-.97,16.6-17.99,16.6-17.99,0,0-13.55,12.44-28.93,12.44S2.21,2.95,2.21,2.95Z"/>
          <path class="cls-4" d="m2.21,2.95s8.7,5.08,27.99,5.08,31.69-5.08,31.69-5.08c0,0-16.53,14.57-31.69,14.57C17.44,17.52,2.21,2.95,2.21,2.95Z"/>
          <path class="cls-4" d="m59.41,1.41s3.02,2.5,4.34,4.45c0,0,.44-3.47-.88-5.24-1.32-1.76-3.46.78-3.46.78Z"/>
          <path class="cls-4" d="m4.41,1.41S1.4,3.91.07,5.86C.07,5.86-.37,2.39.95.62c1.32-1.76,3.46.78,3.46.78Z"/>
          <path class="cls-1" d="m7.68,6.38s10.9,10.11,22.51,10.5c14.39.48,25.76-11.02,25.76-11.02,0,0-15.05,3.65-26.12,3.65S7.68,6.38,7.68,6.38Z"/>
          <polygon class="cls-2" points="50.87 6.96 50.56 10.35 57.42 5.25 50.87 6.96"/>
          <polygon class="cls-2" points="12.38 7.5 12.97 10.61 5.67 5.45 12.38 7.5"/>
          <path class="cls-6" d="m36.72,18.87l1.75,4.3s3.73-.23,5.98-1.17c2.28-.95,7.59-6.93,9.38-9.54l-1.91-.56s-6.24,4.82-15.2,6.97Z"/>
          <path class="cls-8" d="m12.48,8.03s7.97,2.33,17.72,2.33,20.63-2.95,20.63-2.95l.04-.44s-11.79,2.55-21.03,2.55-17.46-2.01-17.46-2.01l.1.53Z"/>
        </g>
      </g>
    </g>
  </g>
</svg>