<?xml version="1.0" encoding="UTF-8"?>
<svg xmlns="http://www.w3.org/2000/svg" viewBox="0 0 69.84 20.2">
  <defs>
    <style>
      .cls-1 {
        fill: #ef7172;
      }

      .cls-2 {
        isolation: isolate;
      }

      .cls-3 {
        fill: #dd4c6a;
      }

      .cls-4 {
        fill: #dd6b7c;
      }

      .cls-5 {
        fill: #ffccb8;
        mix-blend-mode: soft-light;
      }

      .cls-6 {
        fill: #d177b8;
        mix-blend-mode: multiply;
        opacity: .6;
      }
    </style>
  </defs>
  <g class="cls-2">
    <g id="Layer_2" data-name="Layer 2">
      <g id="layer1">
        <g>
          <path class="cls-6" d="m16.95,12.25s6.61,7.95,16.92,7.95,19.02-7.91,19.02-7.91l-35.94-.04Z"/>
          <path class="cls-1" d="m5.78,3.18s11.2,13.97,29.18,13.97,29.18-13.97,29.18-13.97c0,0-9.7.99-18.27,2.3-8.57,1.3-16.27,1.39-24.09,0-7.82-1.39-15-1.94-16.01-2.3Z"/>
          <path class="cls-3" d="m53.14,4.06c-14.21-1.4-18.18.85-18.18.85,0,0-3.54-2.25-18.18-.85-7.8.75-13.27-1.92-13.27-1.92,0,0,1.64,1.71,11.66,2.67,10.02.96,19.79,4,19.79,4,0,0,9.77-3.04,19.79-4,10.02-.96,11.66-2.67,11.66-2.67,0,0-5.46,2.69-13.27,1.92Z"/>
          <path class="cls-4" d="m62.81,1.12s4.34.72,7.02,3.07c0,0-1.4-3.77-3.93-4.13-2.54-.36-3.09,1.06-3.09,1.06Z"/>
          <path class="cls-4" d="m7.02,1.12S2.69,1.84,0,4.19C0,4.19,1.4.42,3.93.06c2.54-.36,3.09,1.06,3.09,1.06Z"/>
          <path class="cls-5" d="m43.47,11.32l2.82,2.63s7.11-2.66,9.12-5.13l-11.94,2.51Z"/>
        </g>
      </g>
    </g>
  </g>
</svg>