<?xml version="1.0" encoding="UTF-8"?>
<svg xmlns="http://www.w3.org/2000/svg" viewBox="0 0 61.44 25.28">
  <defs>
    <style>
      .cls-1 {
        isolation: isolate;
      }

      .cls-2 {
        fill: #dd4c6a;
      }

      .cls-3 {
        fill: #dd6b7c;
      }

      .cls-4 {
        fill: #ff7d85;
      }

      .cls-5 {
        fill: #ffccb8;
        mix-blend-mode: soft-light;
      }

      .cls-6 {
        fill: #9a4054;
      }

      .cls-7 {
        fill: #d177b8;
        mix-blend-mode: multiply;
        opacity: .6;
      }
    </style>
  </defs>
  <g class="cls-1">
    <g id="Layer_2" data-name="Layer 2">
      <g id="layer1">
        <g>
          <path class="cls-7" d="m7.09,9.24s4.56,6.8,9.04,11.42c5.43,5.61,17.51,6.32,25.54.98,4.61-3.07,12.49-14.01,12.49-14.01,0,0-13.12,8.04-24.32,8.11-11.2.07-22.75-6.5-22.75-6.5Z"/>
          <path class="cls-2" d="m3.86,4.3c10.91,2.57,18.3-2.32,26.31-.13v6.63s-10.25-.63-17.04-2.25C6.35,6.92,3.86,4.3,3.86,4.3Z"/>
          <path class="cls-4" d="m2.88,3.86s8.16,11.06,12.53,13.82c4.98,3.15,21.67,2.3,27,1.17,5.33-1.13,14.4-15,14.4-15,0,0-10.9,6.82-28.34,6.82C14.42,10.68,2.88,3.86,2.88,3.86Z"/>
          <path class="cls-2" d="m55.18,4.29c-10.91,2.57-17.53-2.31-25.55-.12v6.63s10.25-.63,17.04-2.25c6.79-1.63,8.51-4.26,8.51-4.26Z"/>
          <path class="cls-6" d="m1.08,2.58s11.43,7.78,30.07,7.78S59.95,1.29,59.95,1.29c0,0-11.14,10.01-28.99,10.01S1.08,2.58,1.08,2.58Z"/>
          <path class="cls-3" d="m56.81,1.29s3.5-.07,4.63,2.29c0,0-.16-2.66-1.49-3.41-1.33-.75-3.14,1.12-3.14,1.12Z"/>
          <path class="cls-3" d="m4.63,2s-3.5-.07-4.63,2.29c0,0,.16-2.66,1.49-3.41s3.14,1.11,3.14,1.11Z"/>
          <path class="cls-5" d="m40.73,15.24l2.98,3.13s3.82-1.91,7.67-7.07l-2.02-1.1s-4.66,2.98-8.64,5.04Z"/>
        </g>
      </g>
    </g>
  </g>
</svg>