<?xml version="1.0" encoding="UTF-8"?>
<svg xmlns="http://www.w3.org/2000/svg" viewBox="0 0 63.7 32.54">
  <defs>
    <style>
      .cls-1 {
        fill: #fff;
      }

      .cls-2 {
        fill: #ef7172;
      }

      .cls-3 {
        isolation: isolate;
      }

      .cls-4 {
        fill: #dd4c6a;
      }

      .cls-5 {
        fill: #dd6b7c;
      }

      .cls-6 {
        fill: #ffccb8;
        mix-blend-mode: soft-light;
      }

      .cls-7 {
        fill: #6a2254;
      }

      .cls-8 {
        fill: #d177b8;
        mix-blend-mode: multiply;
        opacity: .6;
      }
    </style>
  </defs>
  <g class="cls-3">
    <g id="Layer_2" data-name="Layer 2">
      <g id="layer1">
        <g>
          <path class="cls-8" d="m10.62,19.59s6.35,12.95,20.86,12.95,22.27-13.15,22.27-13.15c0,0-8.53,5.84-21.99,5.84s-21.13-5.64-21.13-5.64Z"/>
          <path class="cls-2" d="m1.97,5.32s5.28,11.34,11.53,17.52c7.92,7.83,24.07,7.83,34.53,2.4,6.01-3.12,12.96-18.98,12.96-18.98l-29.23,11.7L1.97,5.32Z"/>
          <path class="cls-7" d="m60.99,3.19s-8.91,5.15-29.23,5.15v.02s0-.02,0-.02C11.43,8.33,2.52,3.19,2.52,3.19c-2,.34,0,3.08,0,3.08,10.97,20.77,43.31,24.41,58.47,0,0,0,2-2.74,0-3.08Z"/>
          <path class="cls-1" d="m6.24,4.75v2.6s9.07,7.79,25.51,7.79,24.53-7.44,24.53-7.44l.54-2.8s-10.6,3.43-25.06,3.43S6.24,4.75,6.24,4.75Z"/>
          <path class="cls-4" d="m3.66,3.74s8.5,2.9,29.14,2.9,27.71-3.21,27.71-3.21c0,0-9.85,4.9-28.76,4.9S3.66,3.74,3.66,3.74Z"/>
          <path class="cls-5" d="m58.64.63s3.88,3.63,5.01,6.32c0,0,.63-4.71-2.5-6.95l-2.5.63Z"/>
          <path class="cls-5" d="m5.06.63S1.18,4.26.05,6.95C.05,6.95-.57,2.25,2.55,0l2.5.63Z"/>
          <path class="cls-6" d="m44.17,23.51s2.54,1.26,4.74.32c2.21-.94,5.82-6.64,5.82-6.64,0,0-8.18,4.82-10.56,6.32Z"/>
        </g>
      </g>
    </g>
  </g>
</svg>