<?xml version="1.0" encoding="UTF-8"?>
<svg xmlns="http://www.w3.org/2000/svg" xmlns:xlink="http://www.w3.org/1999/xlink" viewBox="0 0 99.71 25.22">
  <defs>
    <style>
      .cls-1 {
        fill: url(#_Áåçûìÿííûé_ãðàäèåíò_209-2);
      }

      .cls-2 {
        fill: url(#_Áåçûìÿííûé_ãðàäèåíò_69);
      }

      .cls-3 {
        fill: #fff;
      }

      .cls-4 {
        fill: url(#_Áåçûìÿííûé_ãðàäèåíò_69-2);
      }

      .cls-5 {
        fill: url(#_Áåçûìÿííûé_ãðàäèåíò_300-2);
      }

      .cls-6 {
        isolation: isolate;
      }

      .cls-7 {
        fill: #5b164a;
      }

      .cls-8 {
        fill: #dd4c6a;
      }

      .cls-9 {
        fill: url(#_Áåçûìÿííûé_ãðàäèåíò_191);
      }

      .cls-9, .cls-10, .cls-11 {
        mix-blend-mode: multiply;
      }

      .cls-10 {
        fill: url(#_Áåçûìÿííûé_ãðàäèåíò_191-2);
      }

      .cls-12 {
        fill: url(#_Áåçûìÿííûé_ãðàäèåíò_300);
      }

      .cls-13 {
        fill: url(#_Áåçûìÿííûé_ãðàäèåíò_209);
      }

      .cls-11 {
        fill: #d177b8;
        opacity: .6;
      }
    </style>
    <linearGradient id="_Áåçûìÿííûé_ãðàäèåíò_300" data-name="Áåçûìÿííûé ãðàäèåíò 300" x1="84.54" y1="24.6" x2="84.54" y2="1.3" gradientUnits="userSpaceOnUse">
      <stop offset="0" stop-color="#eee2ff"/>
      <stop offset="1" stop-color="#bdc9fb"/>
    </linearGradient>
    <linearGradient id="_Áåçûìÿííûé_ãðàäèåíò_69" data-name="Áåçûìÿííûé ãðàäèåíò 69" x1="82.78" y1="23.35" x2="82.78" y2="5.01" gradientUnits="userSpaceOnUse">
      <stop offset="0" stop-color="#471f4b"/>
      <stop offset="1" stop-color="#310a39"/>
    </linearGradient>
    <linearGradient id="_Áåçûìÿííûé_ãðàäèåíò_209" data-name="Áåçûìÿííûé ãðàäèåíò 209" x1="82.78" y1="22.82" x2="82.78" y2="5.55" gradientUnits="userSpaceOnUse">
      <stop offset="0" stop-color="#57335b"/>
      <stop offset="1" stop-color="#310a39"/>
    </linearGradient>
    <linearGradient id="_Áåçûìÿííûé_ãðàäèåíò_191" data-name="Áåçûìÿííûé ãðàäèåíò 191" x1="82.78" y1="19.79" x2="82.78" y2="8.58" gradientUnits="userSpaceOnUse">
      <stop offset="0" stop-color="#a79abd"/>
      <stop offset=".99" stop-color="#724a60"/>
    </linearGradient>
    <linearGradient id="_Áåçûìÿííûé_ãðàäèåíò_300-2" data-name="Áåçûìÿííûé ãðàäèåíò 300" x1="216.27" x2="216.27" y2="1.3" gradientTransform="translate(231.44) rotate(-180) scale(1 -1)" xlink:href="#_Áåçûìÿííûé_ãðàäèåíò_300"/>
    <linearGradient id="_Áåçûìÿííûé_ãðàäèåíò_69-2" data-name="Áåçûìÿííûé ãðàäèåíò 69" x1="214.51" y1="23.35" x2="214.51" y2="5.01" gradientTransform="translate(231.44) rotate(-180) scale(1 -1)" xlink:href="#_Áåçûìÿííûé_ãðàäèåíò_69"/>
    <linearGradient id="_Áåçûìÿííûé_ãðàäèåíò_209-2" data-name="Áåçûìÿííûé ãðàäèåíò 209" x1="214.51" y1="22.82" x2="214.51" y2="5.55" gradientTransform="translate(231.44) rotate(-180) scale(1 -1)" xlink:href="#_Áåçûìÿííûé_ãðàäèåíò_209"/>
    <linearGradient id="_Áåçûìÿííûé_ãðàäèåíò_191-2" data-name="Áåçûìÿííûé ãðàäèåíò 191" x1="214.51" y1="19.79" x2="214.51" y2="8.58" gradientTransform="translate(231.44) rotate(-180) scale(1 -1)" xlink:href="#_Áåçûìÿííûé_ãðàäèåíò_191"/>
  </defs>
  <g class="cls-6">
    <g id="Layer_2" data-name="Layer 2">
      <g id="layer1">
        <g>
          <g>
            <path class="cls-12" d="m69.37,20.02c.11,3.32,10,5.49,18.38,4.21,8.11-1.24,12.42-6.74,11.91-13.56-.5-6.81-6.32-10.83-15.13-8.88-9.64,2.12-15.44,10.37-15.17,18.23Z"/>
            <path class="cls-8" d="m71.62,11.16S76.02,1.5,85.11.19c9.09-1.31,12.3,4.63,12.3,4.63,0,0-16.49-6.33-25.79,6.34Z"/>
            <path class="cls-8" d="m69.65,16.51s-.23,3.71,1.97,6.03c0,0-2.55-.55-2.78-2.18-.23-1.63.81-3.85.81-3.85Z"/>
            <path class="cls-8" d="m75.66,23.89s5.92,2.16,13.26.98c7.34-1.18,9.19-6.99,9.19-6.99,0,0-5.09,9.31-22.45,6.01Z"/>
            <g>
              <circle class="cls-2" cx="82.78" cy="14.18" r="9.17"/>
              <circle class="cls-13" cx="82.78" cy="14.18" r="8.63"/>
              <circle class="cls-9" cx="82.78" cy="14.18" r="5.6"/>
            </g>
            <path class="cls-3" d="m89.23,12.26c-.55.49,2.02.61,3.94-.14,1.72-.67,2.55-1.78,2.38-1.97-.16-.19-4.13.17-6.32,2.12Z"/>
            <path class="cls-3" d="m87.77,12.75c-.73-.25-1.58.13-1.61.52-.03.39.87.87,1.29.71.42-.16.73-1.09.32-1.23Z"/>
            <path class="cls-11" d="m70.1,14.68s11.8-13.63,29.46-4.93l-.24-1.17s-.91-5.12-13.28-5.12-15.94,11.22-15.94,11.22Z"/>
            <path class="cls-7" d="m70.75,12.92s4.29-7.16,14.37-7.91c10.08-.75,14.21,3.57,14.21,3.57,0,0,.11-2.37-.3-3.03-.42-.67-20.76-9.51-28.27,7.37Z"/>
          </g>
          <g>
            <path class="cls-5" d="m30.34,20.02c-.11,3.32-10,5.49-18.38,4.21C3.84,22.99-.46,17.49.04,10.67.54,3.86,6.36-.16,15.17,1.79c9.64,2.12,15.44,10.37,15.17,18.23Z"/>
            <path class="cls-8" d="m28.09,11.16S23.69,1.5,14.6.19C5.5-1.12,2.3,4.82,2.3,4.82c0,0,16.49-6.33,25.79,6.34Z"/>
            <path class="cls-8" d="m30.06,16.51s.23,3.71-1.97,6.03c0,0,2.55-.55,2.78-2.18.23-1.63-.81-3.85-.81-3.85Z"/>
            <path class="cls-8" d="m24.05,23.89s-5.92,2.16-13.26.98c-7.34-1.18-9.19-6.99-9.19-6.99,0,0,5.09,9.31,22.45,6.01Z"/>
            <g>
              <circle class="cls-4" cx="16.93" cy="14.18" r="9.17"/>
              <circle class="cls-1" cx="16.93" cy="14.18" r="8.63"/>
              <circle class="cls-10" cx="16.93" cy="14.18" r="5.6"/>
            </g>
            <path class="cls-3" d="m10.48,12.26c.55.49-2.02.61-3.94-.14-1.72-.67-2.55-1.78-2.38-1.97.16-.19,4.13.17,6.32,2.12Z"/>
            <path class="cls-3" d="m11.94,12.75c.73-.25,1.58.13,1.61.52s-.87.87-1.29.71c-.42-.16-.73-1.09-.32-1.23Z"/>
            <path class="cls-11" d="m29.61,14.68S17.81,1.05.15,9.75l.24-1.17S1.29,3.46,13.66,3.46s15.94,11.22,15.94,11.22Z"/>
            <path class="cls-7" d="m28.96,12.92s-4.29-7.16-14.37-7.91S.39,8.58.39,8.58c0,0-.11-2.37.3-3.03.42-.67,20.76-9.51,28.27,7.37Z"/>
          </g>
        </g>
      </g>
    </g>
  </g>
</svg>