<?xml version="1.0" encoding="UTF-8"?>
<svg xmlns="http://www.w3.org/2000/svg" xmlns:xlink="http://www.w3.org/1999/xlink" viewBox="0 0 98.31 22.45">
  <defs>
    <style>
      .cls-1 {
        fill: url(#_Áåçûìÿííûé_ãðàäèåíò_231-2);
      }

      .cls-2 {
        fill: url(#_Áåçûìÿííûé_ãðàäèåíò_241-2);
      }

      .cls-3 {
        fill: #fff;
      }

      .cls-4 {
        fill: url(#_Áåçûìÿííûé_ãðàäèåíò_37);
      }

      .cls-4, .cls-5, .cls-6 {
        mix-blend-mode: multiply;
      }

      .cls-7 {
        fill: url(#_Áåçûìÿííûé_ãðàäèåíò_300-2);
      }

      .cls-8 {
        isolation: isolate;
      }

      .cls-9 {
        fill: #5b164a;
      }

      .cls-10 {
        fill: #dd4c6a;
      }

      .cls-11 {
        fill: url(#_Áåçûìÿííûé_ãðàäèåíò_231);
      }

      .cls-5 {
        fill: url(#_Áåçûìÿííûé_ãðàäèåíò_37-2);
      }

      .cls-12 {
        fill: url(#_Áåçûìÿííûé_ãðàäèåíò_241);
      }

      .cls-13 {
        fill: url(#_Áåçûìÿííûé_ãðàäèåíò_300);
      }

      .cls-6 {
        fill: #d177b8;
        opacity: .6;
      }
    </style>
    <linearGradient id="_Áåçûìÿííûé_ãðàäèåíò_300" data-name="Áåçûìÿííûé ãðàäèåíò 300" x1="82.56" y1="21.93" x2="82.56" y2="2.89" gradientUnits="userSpaceOnUse">
      <stop offset="0" stop-color="#eee2ff"/>
      <stop offset="1" stop-color="#bdc9fb"/>
    </linearGradient>
    <linearGradient id="_Áåçûìÿííûé_ãðàäèåíò_231" data-name="Áåçûìÿííûé ãðàäèåíò 231" x1="82.15" y1="19.43" x2="82.15" y2="2.84" gradientTransform="translate(79.95 -71.74) rotate(80.76)" gradientUnits="userSpaceOnUse">
      <stop offset="0" stop-color="#72791a"/>
      <stop offset="1" stop-color="#594a0b"/>
    </linearGradient>
    <linearGradient id="_Áåçûìÿííûé_ãðàäèåíò_241" data-name="Áåçûìÿííûé ãðàäèåíò 241" x1="82.15" y1="18.95" x2="82.15" y2="3.33" gradientTransform="translate(79.96 -71.74) rotate(80.76)" gradientUnits="userSpaceOnUse">
      <stop offset="0" stop-color="#a68d18"/>
      <stop offset="1" stop-color="#402f40"/>
    </linearGradient>
    <linearGradient id="_Áåçûìÿííûé_ãðàäèåíò_37" data-name="Áåçûìÿííûé ãðàäèåíò 37" x1="82.15" y1="16.2" x2="82.15" y2="6.07" gradientUnits="userSpaceOnUse">
      <stop offset="0" stop-color="#caa7db"/>
      <stop offset=".99" stop-color="#8460b8"/>
    </linearGradient>
    <linearGradient id="_Áåçûìÿííûé_ãðàäèåíò_300-2" data-name="Áåçûìÿííûé ãðàäèåíò 300" x1="25.33" y1="21.93" x2="25.33" y2="2.89" gradientTransform="translate(41.07) rotate(-180) scale(1 -1)" xlink:href="#_Áåçûìÿííûé_ãðàäèåíò_300"/>
    <linearGradient id="_Áåçûìÿííûé_ãðàäèåíò_231-2" data-name="Áåçûìÿííûé ãðàäèåíò 231" x1="24.92" y1="19.43" x2="24.92" y2="2.84" gradientTransform="translate(42.5 4) rotate(-171.09) scale(1 -1)" xlink:href="#_Áåçûìÿííûé_ãðàäèåíò_231"/>
    <linearGradient id="_Áåçûìÿííûé_ãðàäèåíò_241-2" data-name="Áåçûìÿííûé ãðàäèåíò 241" x1="24.92" y1="18.95" x2="24.92" y2="3.33" gradientTransform="translate(42.54 4.15) rotate(-170.76) scale(1 -1)" xlink:href="#_Áåçûìÿííûé_ãðàäèåíò_241"/>
    <linearGradient id="_Áåçûìÿííûé_ãðàäèåíò_37-2" data-name="Áåçûìÿííûé ãðàäèåíò 37" x1="24.92" y1="16.2" x2="24.92" y2="6.07" gradientTransform="translate(41.07) rotate(-180) scale(1 -1)" xlink:href="#_Áåçûìÿííûé_ãðàäèåíò_37"/>
  </defs>
  <g class="cls-8">
    <g id="Layer_2" data-name="Layer 2">
      <g id="layer1">
        <g>
          <g>
            <path class="cls-13" d="m66.81,19.08c-.17,2.1,11.81,3.36,19.2,2.65,7.39-.71,12.01-9.33,12.28-11.5.27-2.17-2.35-7.77-12.55-7.31-10.2.45-18.53,11.38-18.93,16.16Z"/>
            <g>
              <circle class="cls-11" cx="82.15" cy="11.14" r="8.29" transform="translate(57.97 90.44) rotate(-80.76)"/>
              <circle class="cls-12" cx="82.15" cy="11.14" r="7.81" transform="translate(57.97 90.44) rotate(-80.76)"/>
              <path class="cls-4" d="m87.22,11.14c0,2.8-2.27,5.07-5.07,5.07s-5.07-2.27-5.07-5.07,2.27-5.07,5.07-5.07,5.07,2.27,5.07,5.07Z"/>
            </g>
            <path class="cls-10" d="m67.26,17.22S72.48,2.89,82.56.36c8.32-2.09,13.87,5.68,13.87,5.68,0,0-8.25-3.85-16.56-1.5-8.31,2.35-12.62,12.68-12.62,12.68Z"/>
            <path class="cls-10" d="m67.66,16.44l1.98,4.31s-3.07-.69-3.34-.87c-.27-.18,1.36-3.44,1.36-3.44Z"/>
            <path class="cls-10" d="m73.67,21.47s10.1,2.32,16.04-.18c6.41-2.7,8.33-10.12,8.33-10.12,0,0-2.5,7.42-9.23,9.58-5.89,1.89-15.14.72-15.14.72Z"/>
            <path class="cls-3" d="m88.68,10.82c-.64.45,2.03.89,4.13.34,1.88-.49,2.88-1.54,2.74-1.77s-4.34-.33-6.87,1.42Z"/>
            <path class="cls-3" d="m87.09,11.15c-.73-.35-1.67-.06-1.75.34-.08.4.8,1.02,1.26.9.46-.12.9-1.05.49-1.24Z"/>
            <path class="cls-6" d="m67.66,16.44s12.83-13.13,30.04-8.71l-.41-.68s-5.02-4.56-15.13-3.01c-10.11,1.55-14.5,12.39-14.5,12.39Z"/>
            <path class="cls-9" d="m67.26,17.22s5.12-11.02,14.59-12.65c9.47-1.63,15.44,2.49,15.44,2.49l.76-1.51s-9.44-5.37-17.63-2.65c-9.81,3.25-13.16,14.33-13.16,14.33Z"/>
          </g>
          <g>
            <path class="cls-7" d="m31.5,19.08c.17,2.1-11.81,3.36-19.2,2.65C4.91,21.01.29,12.4.02,10.23c-.27-2.17,2.35-7.77,12.55-7.31,10.2.45,18.53,11.38,18.93,16.16Z"/>
            <g>
              <circle class="cls-1" cx="16.15" cy="11.14" r="8.29" transform="translate(-1.53 2.64) rotate(-8.91)"/>
              <circle class="cls-2" cx="16.15" cy="11.14" r="7.81" transform="translate(-1.58 2.74) rotate(-9.24)"/>
              <path class="cls-5" d="m11.09,11.14c0,2.8,2.27,5.07,5.07,5.07s5.07-2.27,5.07-5.07-2.27-5.07-5.07-5.07-5.07,2.27-5.07,5.07Z"/>
            </g>
            <path class="cls-10" d="m31.05,17.22S25.83,2.89,15.75.36C7.43-1.73,1.88,6.04,1.88,6.04c0,0,8.25-3.85,16.56-1.5s12.62,12.68,12.62,12.68Z"/>
            <path class="cls-10" d="m30.65,16.44l-1.98,4.31s3.07-.69,3.34-.87c.27-.18-1.36-3.44-1.36-3.44Z"/>
            <path class="cls-10" d="m24.64,21.47s-10.1,2.32-16.04-.18C2.19,18.59.27,11.17.27,11.17c0,0,2.5,7.42,9.23,9.58,5.89,1.89,15.14.72,15.14.72Z"/>
            <path class="cls-3" d="m9.63,10.82c.64.45-2.03.89-4.13.34-1.88-.49-2.88-1.54-2.74-1.77s4.34-.33,6.87,1.42Z"/>
            <path class="cls-3" d="m11.22,11.15c.73-.35,1.67-.06,1.75.34.08.4-.8,1.02-1.26.9-.46-.12-.9-1.05-.49-1.24Z"/>
            <path class="cls-6" d="m30.65,16.44S17.83,3.31.62,7.73l.41-.68s5.02-4.56,15.13-3.01c10.11,1.55,14.5,12.39,14.5,12.39Z"/>
            <path class="cls-9" d="m31.05,17.22s-5.12-11.02-14.59-12.65S1.03,7.06,1.03,7.06l-.76-1.51S9.71.18,17.9,2.89c9.81,3.25,13.16,14.33,13.16,14.33Z"/>
          </g>
        </g>
      </g>
    </g>
  </g>
</svg>