<?xml version="1.0" encoding="UTF-8"?>
<svg xmlns="http://www.w3.org/2000/svg" xmlns:xlink="http://www.w3.org/1999/xlink" viewBox="0 0 100.83 18.97">
  <defs>
    <style>
      .cls-1 {
        fill: url(#_Áåçûìÿííûé_ãðàäèåíò_173);
      }

      .cls-2 {
        fill: #fff;
      }

      .cls-3 {
        fill: url(#_Áåçûìÿííûé_ãðàäèåíò_37);
      }

      .cls-3, .cls-4, .cls-5 {
        mix-blend-mode: multiply;
      }

      .cls-6 {
        fill: url(#_Áåçûìÿííûé_ãðàäèåíò_300-2);
      }

      .cls-7 {
        isolation: isolate;
      }

      .cls-8 {
        fill: #5b164a;
      }

      .cls-9 {
        fill: #dd4c6a;
      }

      .cls-4 {
        fill: url(#_Áåçûìÿííûé_ãðàäèåíò_37-2);
      }

      .cls-10 {
        fill: url(#_Áåçûìÿííûé_ãðàäèåíò_156-2);
      }

      .cls-11 {
        fill: url(#_Áåçûìÿííûé_ãðàäèåíò_156);
      }

      .cls-12 {
        fill: url(#_Áåçûìÿííûé_ãðàäèåíò_300);
      }

      .cls-5 {
        fill: #d177b8;
        opacity: .6;
      }

      .cls-13 {
        fill: url(#_Áåçûìÿííûé_ãðàäèåíò_173-2);
      }
    </style>
    <linearGradient id="_Áåçûìÿííûé_ãðàäèåíò_300" data-name="Áåçûìÿííûé ãðàäèåíò 300" x1="90.79" y1="31.15" x2="90.79" y2="13.12" gradientTransform="translate(-3.35 -21.81) rotate(6.16)" gradientUnits="userSpaceOnUse">
      <stop offset="0" stop-color="#eee2ff"/>
      <stop offset="1" stop-color="#bdc9fb"/>
    </linearGradient>
    <linearGradient id="_Áåçûìÿííûé_ãðàäèåíò_156" data-name="Áåçûìÿííûé ãðàäèåíò 156" x1="89.69" y1="29.76" x2="89.69" y2="13.18" gradientTransform="translate(-3.35 -21.81) rotate(6.16)" gradientUnits="userSpaceOnUse">
      <stop offset="0" stop-color="#3780a9"/>
      <stop offset="1" stop-color="#153364"/>
    </linearGradient>
    <linearGradient id="_Áåçûìÿííûé_ãðàäèåíò_173" data-name="Áåçûìÿííûé ãðàäèåíò 173" x1="89.69" y1="29.28" x2="89.69" y2="13.66" gradientTransform="translate(-3.35 -21.81) rotate(6.16)" gradientUnits="userSpaceOnUse">
      <stop offset="0" stop-color="#4997fe"/>
      <stop offset=".96" stop-color="#021f40"/>
      <stop offset="1" stop-color="#152c39"/>
    </linearGradient>
    <linearGradient id="_Áåçûìÿííûé_ãðàäèåíò_37" data-name="Áåçûìÿííûé ãðàäèåíò 37" x1="89.69" y1="26.54" x2="89.69" y2="16.4" gradientTransform="translate(-3.35 -21.81) rotate(6.16)" gradientUnits="userSpaceOnUse">
      <stop offset="0" stop-color="#caa7db"/>
      <stop offset=".99" stop-color="#8460b8"/>
    </linearGradient>
    <linearGradient id="_Áåçûìÿííûé_ãðàäèåíò_300-2" data-name="Áåçûìÿííûé ãðàäèåíò 300" x1="215.08" y1="17.74" x2="215.08" y2="-.3" gradientTransform="translate(229.19 -21.81) rotate(173.84) scale(1 -1)" xlink:href="#_Áåçûìÿííûé_ãðàäèåíò_300"/>
    <linearGradient id="_Áåçûìÿííûé_ãðàäèåíò_156-2" data-name="Áåçûìÿííûé ãðàäèåíò 156" x1="213.97" y1="16.35" x2="213.97" y2="-.24" gradientTransform="translate(228.79 42.72) rotate(-168.83) scale(1 -1)" xlink:href="#_Áåçûìÿííûé_ãðàäèåíò_156"/>
    <linearGradient id="_Áåçûìÿííûé_ãðàäèåíò_173-2" data-name="Áåçûìÿííûé ãðàäèåíò 173" x1="213.97" y1="15.86" x2="213.97" y2=".25" gradientTransform="translate(229.19 -21.81) rotate(173.84) scale(1 -1)" xlink:href="#_Áåçûìÿííûé_ãðàäèåíò_173"/>
    <linearGradient id="_Áåçûìÿííûé_ãðàäèåíò_37-2" data-name="Áåçûìÿííûé ãðàäèåíò 37" x1="213.97" y1="13.12" x2="213.97" y2="2.99" gradientTransform="translate(229.19 -21.81) rotate(173.84) scale(1 -1)" xlink:href="#_Áåçûìÿííûé_ãðàäèåíò_37"/>
  </defs>
  <g class="cls-7">
    <g id="Layer_2" data-name="Layer 2">
      <g id="layer1">
        <g>
          <g>
            <path class="cls-12" d="m68.33,15.41c-.4,2.07,10.32,3.59,17.7,2.71,9.92-1.18,13.7-6.83,14.2-8.96.5-2.13-1.15-7.15-11.34-7.79-10.19-.65-19.64,9.32-20.55,14.04Z"/>
            <g>
              <path class="cls-11" d="m91.76,10.05c-.49,4.55-4.58,7.85-9.13,7.36-4.55-.49-7.85-4.58-7.36-9.13.49-4.55,4.58-7.85,9.13-7.36s7.85,4.58,7.36,9.13Z"/>
              <path class="cls-1" d="m91.28,10c-.46,4.29-4.31,7.39-8.6,6.93-4.29-.46-7.39-4.31-6.93-8.6.46-4.29,4.31-7.39,8.6-6.92,4.29.46,7.39,4.31,6.92,8.6Z"/>
              <path class="cls-3" d="m88.55,9.7c-.3,2.78-2.8,4.79-5.58,4.49-2.78-.3-4.79-2.8-4.49-5.58.3-2.78,2.8-4.79,5.58-4.49,2.78.3,4.79,2.8,4.49,5.58Z"/>
            </g>
            <path class="cls-9" d="m68.97,13.61S72.7-.75,84.9.03c9.5.61,14.27,5.59,14.27,5.59,0,0-7.79-4.71-16.3-3.27-8.51,1.44-13.9,11.25-13.9,11.25Z"/>
            <path class="cls-9" d="m69.45,12.87l1.5,4.5s-2.98-1.01-3.23-1.23c-.25-.21,1.73-3.27,1.73-3.27Z"/>
            <path class="cls-9" d="m72.19,17.48s9.76,2.64,15.96.89c8.47-2.38,11.58-7.97,11.58-7.97,0,0-4.24,5.79-12.17,7.49-6.05,1.29-15.37-.41-15.37-.41Z"/>
            <path class="cls-2" d="m90.96,9.54c-.68.37,1.93,1.1,4.07.78,1.92-.29,3.03-1.22,2.91-1.46s-4.28-.8-6.98.68Z"/>
            <path class="cls-2" d="m89.34,9.7c-.69-.43-1.65-.24-1.78.15-.12.39.69,1.1,1.16,1.03s1-.94.62-1.18Z"/>
            <path class="cls-5" d="m69.45,12.87s14.16-11.68,30.8-5.43l-.34-.72s-4.5-5.08-14.72-4.62c-10.22.46-15.74,10.77-15.74,10.77Z"/>
            <path class="cls-8" d="m68.97,13.61s4.36-9.57,15.88-10.49c10.63-.85,15.06,3.61,15.06,3.61l.92-1.42s-4.85-3.95-17.24-4.53c-10.32-.48-14.62,12.83-14.62,12.83Z"/>
          </g>
          <g>
            <path class="cls-6" d="m32.5,15.41c.4,2.07-10.32,3.59-17.7,2.71C4.88,16.93,1.11,11.28.6,9.16.1,7.03,1.75,2.01,11.95,1.37c10.19-.65,19.65,9.32,20.55,14.04Z"/>
            <g>
              <circle class="cls-10" cx="17.32" cy="9.16" r="8.29" transform="translate(-1.94 5.58) rotate(-17.33)"/>
              <path class="cls-13" d="m9.55,10c.46,4.29,4.31,7.39,8.6,6.93,4.29-.46,7.39-4.31,6.92-8.6-.46-4.29-4.31-7.39-8.6-6.92-4.29.46-7.39,4.31-6.92,8.6Z"/>
              <path class="cls-4" d="m12.28,9.7c.3,2.78,2.8,4.79,5.58,4.49,2.78-.3,4.79-2.8,4.49-5.58-.3-2.78-2.8-4.79-5.58-4.49-2.78.3-4.79,2.8-4.49,5.58Z"/>
            </g>
            <path class="cls-9" d="m31.86,13.61S28.13-.75,15.93.03C6.43.64,1.66,5.62,1.66,5.62c0,0,7.79-4.71,16.3-3.27,8.51,1.44,13.9,11.25,13.9,11.25Z"/>
            <path class="cls-9" d="m31.38,12.87l-1.5,4.5s2.98-1.01,3.23-1.23c.25-.21-1.73-3.27-1.73-3.27Z"/>
            <path class="cls-9" d="m28.65,17.48s-9.76,2.64-15.96.89C4.22,15.99,1.11,10.4,1.11,10.4c0,0,4.24,5.79,12.17,7.49,6.05,1.29,15.37-.41,15.37-.41Z"/>
            <path class="cls-2" d="m9.87,9.54c.68.37-1.93,1.1-4.07.78-1.92-.29-3.03-1.22-2.91-1.46.12-.24,4.28-.8,6.98.68Z"/>
            <path class="cls-2" d="m11.49,9.7c.69-.43,1.65-.24,1.78.15.12.39-.69,1.1-1.16,1.03s-1-.94-.62-1.18Z"/>
            <path class="cls-5" d="m31.38,12.87S17.22,1.2.58,7.44l.34-.72S5.42,1.65,15.63,2.1c10.22.46,15.74,10.77,15.74,10.77Z"/>
            <path class="cls-8" d="m31.86,13.61S27.5,4.04,15.98,3.12C5.35,2.27.92,6.72.92,6.72l-.92-1.42S4.85,1.35,17.24.77c10.32-.48,14.62,12.83,14.62,12.83Z"/>
          </g>
        </g>
      </g>
    </g>
  </g>
</svg>