<?xml version="1.0" encoding="UTF-8"?>
<svg xmlns="http://www.w3.org/2000/svg" xmlns:xlink="http://www.w3.org/1999/xlink" viewBox="0 0 101.25 23.09">
  <defs>
    <style>
      .cls-1 {
        fill: #fff;
      }

      .cls-2 {
        fill: url(#_Áåçûìÿííûé_ãðàäèåíò_300-2);
      }

      .cls-3 {
        isolation: isolate;
      }

      .cls-4 {
        fill: #5b164a;
      }

      .cls-5 {
        fill: #dd4c6a;
      }

      .cls-6 {
        fill: url(#_Áåçûìÿííûé_ãðàäèåíò_182-2);
      }

      .cls-7 {
        fill: url(#_Áåçûìÿííûé_ãðàäèåíò_191);
      }

      .cls-7, .cls-8, .cls-9 {
        mix-blend-mode: multiply;
      }

      .cls-10 {
        fill: url(#_Áåçûìÿííûé_ãðàäèåíò_182);
      }

      .cls-11 {
        fill: url(#_Áåçûìÿííûé_ãðàäèåíò_205-2);
      }

      .cls-8 {
        fill: url(#_Áåçûìÿííûé_ãðàäèåíò_191-2);
      }

      .cls-12 {
        fill: url(#_Áåçûìÿííûé_ãðàäèåíò_205);
      }

      .cls-13 {
        fill: url(#_Áåçûìÿííûé_ãðàäèåíò_300);
      }

      .cls-9 {
        fill: #d177b8;
        opacity: .6;
      }
    </style>
    <linearGradient id="_Áåçûìÿííûé_ãðàäèåíò_300" data-name="Áåçûìÿííûé ãðàäèåíò 300" x1="86.08" y1="22.01" x2="86.08" y2="3.69" gradientUnits="userSpaceOnUse">
      <stop offset="0" stop-color="#eee2ff"/>
      <stop offset="1" stop-color="#bdc9fb"/>
    </linearGradient>
    <linearGradient id="_Áåçûìÿííûé_ãðàäèåíò_182" data-name="Áåçûìÿííûé ãðàäèåíò 182" x1="84.32" y1="22.65" x2="84.32" y2="4.31" gradientUnits="userSpaceOnUse">
      <stop offset="0" stop-color="#aca1db"/>
      <stop offset="1" stop-color="#6a518a"/>
    </linearGradient>
    <linearGradient id="_Áåçûìÿííûé_ãðàäèåíò_205" data-name="Áåçûìÿííûé ãðàäèåíò 205" x1="84.32" y1="22.11" x2="84.32" y2="4.85" gradientUnits="userSpaceOnUse">
      <stop offset="0" stop-color="#baa9cc"/>
      <stop offset=".96" stop-color="#404577"/>
    </linearGradient>
    <linearGradient id="_Áåçûìÿííûé_ãðàäèåíò_191" data-name="Áåçûìÿííûé ãðàäèåíò 191" x1="84.32" y1="19.08" x2="84.32" y2="7.88" gradientUnits="userSpaceOnUse">
      <stop offset="0" stop-color="#a79abd"/>
      <stop offset=".99" stop-color="#724a60"/>
    </linearGradient>
    <linearGradient id="_Áåçûìÿííûé_ãðàäèåíò_300-2" data-name="Áåçûìÿííûé ãðàäèåíò 300" x1="236.4" y1="22.01" x2="236.4" gradientTransform="translate(251.58) rotate(-180) scale(1 -1)" xlink:href="#_Áåçûìÿííûé_ãðàäèåíò_300"/>
    <linearGradient id="_Áåçûìÿííûé_ãðàäèåíò_182-2" data-name="Áåçûìÿííûé ãðàäèåíò 182" x1="234.64" y1="22.65" x2="234.64" y2="4.31" gradientTransform="translate(251.58) rotate(-180) scale(1 -1)" xlink:href="#_Áåçûìÿííûé_ãðàäèåíò_182"/>
    <linearGradient id="_Áåçûìÿííûé_ãðàäèåíò_205-2" data-name="Áåçûìÿííûé ãðàäèåíò 205" x1="234.64" y1="22.11" x2="234.64" y2="4.85" gradientTransform="translate(251.58) rotate(-180) scale(1 -1)" xlink:href="#_Áåçûìÿííûé_ãðàäèåíò_205"/>
    <linearGradient id="_Áåçûìÿííûé_ãðàäèåíò_191-2" data-name="Áåçûìÿííûé ãðàäèåíò 191" x1="234.64" y1="19.08" x2="234.64" y2="7.88" gradientTransform="translate(251.58) rotate(-180) scale(1 -1)" xlink:href="#_Áåçûìÿííûé_ãðàäèåíò_191"/>
  </defs>
  <g class="cls-3">
    <g id="Layer_2" data-name="Layer 2">
      <g id="layer1">
        <g>
          <g>
            <path class="cls-13" d="m70.92,18.41c.11,2.61,10,4.31,18.38,3.31,8.11-.97,12.42-5.3,11.91-10.66-.5-5.36-6.32-8.51-15.13-6.99-9.64,1.67-15.44,8.15-15.17,14.33Z"/>
            <path class="cls-5" d="m71.19,15.65s-.23,2.92,1.97,4.74c0,0-2.55-.44-2.78-1.72-.23-1.28.81-3.02.81-3.02Z"/>
            <g>
              <circle class="cls-10" cx="84.32" cy="13.48" r="9.17"/>
              <circle class="cls-12" cx="84.32" cy="13.48" r="8.63"/>
              <circle class="cls-7" cx="84.32" cy="13.48" r="5.6"/>
            </g>
            <path class="cls-1" d="m90.77,12.31c-.55.39,2.02.48,3.94-.11,1.72-.53,2.55-1.4,2.38-1.55-.16-.15-4.13.14-6.32,1.66Z"/>
            <path class="cls-1" d="m89.31,12.7c-.73-.2-1.58.1-1.61.41-.03.3.87.69,1.29.56.42-.13.73-.85.32-.96Z"/>
            <path class="cls-9" d="m71.64,14.21s11.8-10.72,29.46-3.88l-.24-.92s-.91-4.02-13.28-4.02-15.94,8.82-15.94,8.82Z"/>
            <path class="cls-5" d="m73.16,20.39s6.83,3.6,16.76,2.49c7.36-.82,9.73-6.14,9.73-6.14,0,0-8.96,5.92-26.5,3.66Z"/>
            <path class="cls-5" d="m73.16,11.45S76.99,1.13,86.08.1s12.87,6.36,12.87,6.36c0,0-16.49-4.98-25.79,4.99Z"/>
            <path class="cls-4" d="m72.29,12.83s3.71-4.92,13.79-5.51c10.08-.59,14.79,2.1,14.79,2.1,0,0,.11-1.86-.3-2.38-.42-.52-20.76-7.48-28.27,5.8Z"/>
          </g>
          <g>
            <path class="cls-2" d="m30.34,18.41c-.11,2.61-10,4.31-18.38,3.31C3.84,20.75-.46,16.42.04,11.06S6.36,2.55,15.17,4.07c9.64,1.67,15.44,8.15,15.17,14.33Z"/>
            <path class="cls-5" d="m30.06,15.65s.23,2.92-1.97,4.74c0,0,2.55-.44,2.78-1.72.23-1.28-.81-3.02-.81-3.02Z"/>
            <g>
              <circle class="cls-6" cx="16.93" cy="13.48" r="9.17"/>
              <circle class="cls-11" cx="16.93" cy="13.48" r="8.63"/>
              <circle class="cls-8" cx="16.93" cy="13.48" r="5.6"/>
            </g>
            <path class="cls-1" d="m10.48,12.31c.55.39-2.02.48-3.94-.11-1.72-.53-2.55-1.4-2.38-1.55.16-.15,4.13.14,6.32,1.66Z"/>
            <path class="cls-1" d="m11.94,12.7c.73-.2,1.58.1,1.61.41.03.3-.87.69-1.29.56-.42-.13-.73-.85-.32-.96Z"/>
            <path class="cls-9" d="m29.61,14.21S17.81,3.49.15,10.33l.24-.92s.91-4.02,13.28-4.02,15.94,8.82,15.94,8.82Z"/>
            <path class="cls-5" d="m28.09,20.39s-6.83,3.6-16.76,2.49c-7.36-.82-9.73-6.14-9.73-6.14,0,0,8.96,5.92,26.5,3.66Z"/>
            <path class="cls-5" d="m28.09,11.45S24.26,1.13,15.17.1,2.3,6.46,2.3,6.46c0,0,16.49-4.98,25.79,4.99Z"/>
            <path class="cls-4" d="m28.96,12.83s-3.71-4.92-13.79-5.51C5.1,6.73.39,9.42.39,9.42c0,0-.11-1.86.3-2.38.42-.52,20.76-7.48,28.27,5.8Z"/>
          </g>
        </g>
      </g>
    </g>
  </g>
</svg>