<?xml version="1.0" encoding="UTF-8"?>
<svg xmlns="http://www.w3.org/2000/svg" xmlns:xlink="http://www.w3.org/1999/xlink" viewBox="0 0 119.22 19.06">
  <defs>
    <style>
      .cls-1 {
        isolation: isolate;
      }

      .cls-2 {
        fill: url(#_Áåçûìÿííûé_ãðàäèåíò_264);
      }

      .cls-3 {
        fill: url(#_Áåçûìÿííûé_ãðàäèåíò_264-2);
      }

      .cls-4 {
        fill: #d177b8;
        mix-blend-mode: multiply;
        opacity: .6;
      }
    </style>
    <linearGradient id="_Áåçûìÿííûé_ãðàäèåíò_264" data-name="Áåçûìÿííûé ãðàäèåíò 264" x1="72.49" y1="9.53" x2="119.22" y2="9.53" gradientUnits="userSpaceOnUse">
      <stop offset="0" stop-color="#70253b"/>
      <stop offset="1" stop-color="#4d0e2e"/>
    </linearGradient>
    <linearGradient id="_Áåçûìÿííûé_ãðàäèåíò_264-2" data-name="Áåçûìÿííûé ãðàäèåíò 264" x1="229.76" x2="276.48" gradientTransform="translate(276.48) rotate(-180) scale(1 -1)" xlink:href="#_Áåçûìÿííûé_ãðàäèåíò_264"/>
  </defs>
  <g class="cls-1">
    <g id="Layer_2" data-name="Layer 2">
      <g id="layer1">
        <g>
          <g>
            <path class="cls-2" d="m119.22,17.46s-4.92-8.48-9.86-8.73c-1.07-.06-2.38.06-3.87.3-10.64,1.74-30.1,10.03-30.1,10.03,0,0-3.22-8.38-2.87-11.8l1.12-.5s1.15,5.29,1.91,6.05l-.14-6.84s15.5-2.34,25.54-3.8h0s1.67-.25,1.67-.25h0c1.19-.18,2.27-.33,3.2-.46h0c2.07-.3,3.38-.46,3.47-.44.41.11,1.31.42,1.42.46l-.54-1.48s5.22,5.44,9.05,17.46Z"/>
            <path class="cls-4" d="m119.22,17.46s-4.92-8.48-9.86-8.73c-1.07-.06-2.38.06-3.87.3l-4.55-6.86h0s1.67-.25,1.67-.25h0c2.73.47,10.32,5.94,10.32,5.94-2.09-4.06-6.84-6.27-7.11-6.4,2.07-.3,3.38-.46,3.47-.44.41.11,1.31.42,1.42.46l-.54-1.48s5.22,5.44,9.05,17.46Z"/>
          </g>
          <g>
            <path class="cls-3" d="m0,17.46s4.92-8.48,9.86-8.73c1.07-.06,2.38.06,3.87.3,10.64,1.74,30.1,10.03,30.1,10.03,0,0,3.22-8.38,2.87-11.8l-1.12-.5s-1.15,5.29-1.91,6.05l.14-6.84s-15.5-2.34-25.54-3.8h0s-1.67-.25-1.67-.25h0c-1.19-.18-2.27-.33-3.2-.46h0c-2.07-.3-3.38-.46-3.47-.44-.41.11-1.31.42-1.42.46l.54-1.48S3.83,5.44,0,17.46Z"/>
            <path class="cls-4" d="m0,17.46s4.92-8.48,9.86-8.73c1.07-.06,2.38.06,3.87.3l4.55-6.86h0s-1.67-.25-1.67-.25h0c-2.73.47-10.32,5.94-10.32,5.94C8.37,3.8,13.12,1.59,13.39,1.46c-2.07-.3-3.38-.46-3.47-.44-.41.11-1.31.42-1.42.46l.54-1.48S3.83,5.44,0,17.46Z"/>
          </g>
        </g>
      </g>
    </g>
  </g>
</svg>