<?xml version="1.0" encoding="UTF-8"?>
<svg xmlns="http://www.w3.org/2000/svg" xmlns:xlink="http://www.w3.org/1999/xlink" viewBox="0 0 117.29 14.75">
  <defs>
    <style>
      .cls-1 {
        isolation: isolate;
      }

      .cls-2 {
        fill: url(#_Áåçûìÿííûé_ãðàäèåíò_265);
      }

      .cls-3 {
        fill: url(#_Áåçûìÿííûé_ãðàäèåíò_123);
      }

      .cls-3, .cls-4 {
        mix-blend-mode: multiply;
        opacity: .6;
      }

      .cls-4 {
        fill: url(#_Áåçûìÿííûé_ãðàäèåíò_123-2);
      }

      .cls-5 {
        fill: url(#_Áåçûìÿííûé_ãðàäèåíò_265-2);
      }
    </style>
    <linearGradient id="_Áåçûìÿííûé_ãðàäèåíò_265" data-name="Áåçûìÿííûé ãðàäèåíò 265" x1="72.49" y1="7.37" x2="117.29" y2="7.37" gradientUnits="userSpaceOnUse">
      <stop offset="0" stop-color="#bf5e4b"/>
      <stop offset="1" stop-color="#a84051"/>
    </linearGradient>
    <linearGradient id="_Áåçûìÿííûé_ãðàäèåíò_123" data-name="Áåçûìÿííûé ãðàäèåíò 123" x1="104.12" y1="7.37" x2="117.29" y2="7.37" gradientUnits="userSpaceOnUse">
      <stop offset="0" stop-color="#ffeadb"/>
      <stop offset=".99" stop-color="#d177f4"/>
    </linearGradient>
    <linearGradient id="_Áåçûìÿííûé_ãðàäèåíò_265-2" data-name="Áåçûìÿííûé ãðàäèåíò 265" x1="221.27" x2="266.07" gradientTransform="translate(266.07) rotate(-180) scale(1 -1)" xlink:href="#_Áåçûìÿííûé_ãðàäèåíò_265"/>
    <linearGradient id="_Áåçûìÿííûé_ãðàäèåíò_123-2" data-name="Áåçûìÿííûé ãðàäèåíò 123" x1="252.9" x2="266.07" gradientTransform="translate(266.07) rotate(-180) scale(1 -1)" xlink:href="#_Áåçûìÿííûé_ãðàäèåíò_123"/>
  </defs>
  <g class="cls-1">
    <g id="Layer_2" data-name="Layer 2">
      <g id="layer1">
        <g>
          <g>
            <path class="cls-2" d="m117.29,14.75s-5.29-5.1-8.45-6.16c0,0-.02,0-.03,0-6.82-2.25-36.08,4.5-36.08,4.5,0,0-.9-8.19.71-13.08h.69s-.97,4.39-.69,6.14c0,0,.97-5.18,2.19-6.14,0,0,19.04.73,25.16.61,1.32-.03,2.42-.05,3.32-.06l1.23-.03c2.28-.06,2.88-.08,2.88-.08v-.43s5.11,4.59,9.07,14.75Z"/>
            <path class="cls-3" d="m117.29,14.75s-5.29-5.1-8.45-6.16c0,0-.02,0-.03,0-1.5-4.11-4.69-8.03-4.69-8.03l1.23-.03c2.67,2.38,7.45,8.74,7.45,8.74-1.14-4.07-4.57-9.26-4.57-9.26,0,0,5.11,4.59,9.07,14.75Z"/>
          </g>
          <g>
            <path class="cls-5" d="m0,14.75s5.29-5.1,8.45-6.16c0,0,.02,0,.03,0,6.82-2.25,36.08,4.5,36.08,4.5,0,0,.9-8.19-.71-13.08h-.69s.97,4.39.69,6.14c0,0-.97-5.18-2.19-6.14,0,0-19.04.73-25.16.61-1.32-.03-2.42-.05-3.32-.06l-1.23-.03c-2.28-.06-2.88-.08-2.88-.08v-.43S3.96,4.59,0,14.75Z"/>
            <path class="cls-4" d="m0,14.75s5.29-5.1,8.45-6.16c0,0,.02,0,.03,0C9.98,4.46,13.17.54,13.17.54l-1.23-.03c-2.67,2.38-7.45,8.74-7.45,8.74C5.63,5.19,9.07,0,9.07,0,9.07,0,3.96,4.59,0,14.75Z"/>
          </g>
        </g>
      </g>
    </g>
  </g>
</svg>