<?xml version="1.0" encoding="UTF-8"?>
<svg xmlns="http://www.w3.org/2000/svg" xmlns:xlink="http://www.w3.org/1999/xlink" viewBox="0 0 120.47 22.6">
  <defs>
    <style>
      .cls-1 {
        isolation: isolate;
      }

      .cls-2 {
        fill: url(#_Áåçûìÿííûé_ãðàäèåíò_27);
      }

      .cls-3 {
        fill: url(#_Áåçûìÿííûé_ãðàäèåíò_27-2);
      }

      .cls-4 {
        fill: #d177b8;
        mix-blend-mode: multiply;
        opacity: .6;
      }
    </style>
    <linearGradient id="_Áåçûìÿííûé_ãðàäèåíò_27" data-name="Áåçûìÿííûé ãðàäèåíò 27" x1="73.07" y1="11.3" x2="120.47" y2="11.3" gradientUnits="userSpaceOnUse">
      <stop offset="0" stop-color="#751540"/>
      <stop offset="1" stop-color="#a93749"/>
    </linearGradient>
    <linearGradient id="_Áåçûìÿííûé_ãðàäèåíò_27-2" data-name="Áåçûìÿííûé ãðàäèåíò 27" x1="15.84" x2="63.24" gradientTransform="translate(63.24) rotate(-180) scale(1 -1)" xlink:href="#_Áåçûìÿííûé_ãðàäèåíò_27"/>
  </defs>
  <g class="cls-1">
    <g id="Layer_2" data-name="Layer 2">
      <g id="layer1">
        <g>
          <g>
            <path class="cls-2" d="m77.16,22.6s-3.49-7.58-4.09-14.45l2.89-1.29s.45,7.13,4.24,11.92c0,0-2.17-6.23-2.71-11.92,0,0,29.44-4.97,30.88-4.7s3.61,1.72,3.61,1.72l-1.17-3.88s7.4,11.14,9.66,20.92c0,0-6.78-5.27-11.02-5.84-6.77-.9-23.05,4.12-32.29,7.52Z"/>
            <path class="cls-4" d="m82.41,20.76s-1.1-10.44,1.33-14.94c0,0-.89,5.71,0,10.49,0,0,5.62-10.27,12.1-12.45l-18.35,3s1.08,8.07,2.71,11.92c0,0-3.07-2.41-4.24-11.92l-2.89,1.29s.51,7.55,4.09,14.45l5.25-1.84Z"/>
          </g>
          <g>
            <path class="cls-3" d="m43.31,22.6s3.49-7.58,4.09-14.45l-2.89-1.29s-.45,7.13-4.24,11.92c0,0,2.17-6.23,2.71-11.92,0,0-29.44-4.97-30.88-4.7-1.44.27-3.61,1.72-3.61,1.72l1.17-3.88S2.26,11.14,0,20.92c0,0,6.78-5.27,11.02-5.84,6.77-.9,23.05,4.12,32.29,7.52Z"/>
            <path class="cls-4" d="m38.06,20.76s1.1-10.44-1.33-14.94c0,0,.89,5.71,0,10.49,0,0-5.62-10.27-12.1-12.45l18.35,3s-1.08,8.07-2.71,11.92c0,0,3.07-2.41,4.24-11.92l2.89,1.29s-.51,7.55-4.09,14.45l-5.25-1.84Z"/>
          </g>
        </g>
      </g>
    </g>
  </g>
</svg>